<?xml version="1.0" standalone="no"?>
<!DOCTYPE svg PUBLIC "-//W3C//DTD SVG 20010904//EN"
 "http://www.w3.org/TR/2001/REC-SVG-20010904/DTD/svg10.dtd">
<svg version="1.0" xmlns="http://www.w3.org/2000/svg"
 width="1890.000000pt" height="1417.000000pt" viewBox="0 0 1890.000000 1417.000000"
 preserveAspectRatio="xMidYMid meet">

<g transform="translate(0.000000,1417.000000) scale(0.100000,-0.100000)"
fill="#FFCCCC" stroke="none">
<path d="M8830 10569 c-2632 -81 -5028 -685 -6455 -1626 -667 -440 -1087 -922
-1253 -1434 -59 -181 -76 -293 -76 -489 0 -195 17 -308 75 -486 118 -364 372
-724 737 -1045 1141 -1002 3270 -1715 5817 -1948 611 -56 1055 -75 1770 -75
592 0 845 8 1325 40 3089 206 5676 1139 6659 2402 201 257 337 544 393 825 29
147 31 403 4 552 -137 760 -834 1474 -2001 2050 -1746 861 -4329 1317 -6995
1234z m1550 -109 c834 -46 1461 -113 2165 -231 1880 -317 3431 -919 4350
-1688 114 -95 332 -313 411 -411 194 -241 325 -481 388 -712 141 -517 14
-1010 -388 -1508 -79 -98 -297 -316 -411 -411 -1204 -1008 -3478 -1714 -6095
-1893 -500 -35 -700 -41 -1355 -41 -655 0 -855 6 -1355 41 -2617 179 -4891
885 -6095 1893 -114 95 -332 313 -411 411 -299 370 -444 733 -444 1110 0 377
145 740 444 1110 79 98 297 316 411 411 1063 890 2957 1547 5225 1813 512 60
963 93 1650 120 178 7 1324 -3 1510 -14z"/>
<path d="M3490 7185 l0 -985 125 0 125 0 0 460 0 460 475 0 475 0 0 -460 0
-460 130 0 130 0 0 985 0 985 -130 0 -130 0 0 -415 0 -415 -472 2 -473 3 -3
413 -2 412 -125 0 -125 0 0 -985z"/>
<path d="M8173 7978 l-113 -31 0 -168 0 -169 -110 0 -110 0 0 -95 0 -95 110 0
110 0 0 -419 c0 -533 12 -621 94 -717 88 -103 274 -140 460 -93 44 11 46 13
46 49 0 20 -3 64 -6 97 l-7 60 -36 -8 c-20 -5 -63 -9 -96 -9 -87 0 -142 30
-175 95 l-25 49 -3 448 -3 448 186 0 185 0 0 95 0 95 -185 0 -185 0 0 200 c0
154 -3 200 -12 199 -7 0 -64 -14 -125 -31z"/>
<path d="M5852 7630 c-234 -43 -418 -189 -510 -407 -72 -171 -80 -419 -17
-603 34 -99 78 -172 150 -249 74 -78 160 -132 270 -168 69 -22 98 -26 205 -27
147 0 215 14 340 75 68 33 101 58 165 123 91 92 141 179 176 312 30 108 32
335 5 439 -65 250 -232 427 -462 489 -72 20 -250 28 -322 16z m206 -190 c114
-27 209 -104 267 -219 54 -108 69 -178 69 -321 -1 -108 -4 -136 -28 -207 -47
-145 -129 -243 -252 -300 -79 -37 -199 -38 -286 -4 -68 26 -152 99 -198 171
-139 216 -110 595 58 768 96 99 239 142 370 112z"/>
<path d="M7509 7626 c-108 -29 -209 -116 -262 -228 -18 -37 -35 -67 -39 -67
-5 -1 -8 38 -8 87 0 48 -3 111 -6 140 l-7 52 -110 0 -110 0 7 -77 c3 -42 6
-359 6 -705 l0 -628 124 0 124 0 4 428 c4 377 6 433 22 482 44 133 99 205 194
252 59 29 76 33 149 33 l83 0 0 116 c0 113 -1 117 -22 123 -35 9 -98 6 -149
-8z"/>
<path d="M9375 7625 c-260 -57 -434 -242 -502 -533 -26 -111 -23 -328 5 -435
64 -237 234 -405 467 -464 97 -24 337 -24 454 1 121 25 211 56 211 73 0 12
-25 125 -35 160 -3 9 -20 6 -62 -9 -138 -48 -359 -64 -476 -33 -205 53 -313
191 -340 433 l-5 42 498 0 497 0 7 65 c13 125 -23 304 -85 427 -42 84 -135
178 -219 222 -116 61 -279 81 -415 51z m237 -185 c127 -35 218 -165 235 -337
l6 -63 -377 0 c-426 0 -388 -9 -361 89 66 249 264 373 497 311z"/>
<path d="M10993 7626 c-98 -23 -190 -73 -259 -142 -34 -34 -65 -71 -69 -83
-14 -45 -23 -17 -30 94 l-7 115 -115 0 -116 0 7 -37 c3 -21 6 -338 6 -705 l0
-668 130 0 129 0 3 473 3 472 31 65 c78 164 244 248 410 207 104 -26 175 -92
216 -202 23 -59 23 -70 26 -537 l3 -478 130 0 131 0 -4 488 c-4 458 -6 492
-26 564 -51 187 -147 298 -307 357 -77 29 -207 36 -292 17z"/>
<path d="M12975 7631 c-93 -15 -180 -41 -252 -76 -40 -19 -73 -38 -73 -42 0
-19 53 -164 58 -160 130 69 217 92 357 92 101 0 127 -3 166 -21 97 -45 159
-147 159 -263 l0 -59 -97 -6 c-383 -25 -609 -128 -702 -318 -104 -214 -27
-466 172 -558 113 -54 223 -63 351 -30 102 26 168 62 241 133 32 31 60 57 61
57 1 0 5 -28 9 -62 3 -35 8 -75 11 -90 l6 -28 115 0 c115 0 115 0 108 23 -4
12 -11 238 -15 502 -8 521 -9 533 -69 660 -54 114 -153 195 -285 232 -62 17
-252 25 -321 14z m423 -868 c-3 -148 -5 -161 -30 -208 -59 -112 -166 -183
-293 -192 -168 -13 -275 83 -275 246 1 194 186 305 513 310 l89 1 -4 -157z"/>
<path d="M14970 7629 c-137 -24 -269 -119 -325 -233 -40 -82 -47 -205 -16
-287 40 -105 144 -196 298 -259 202 -83 261 -121 294 -195 36 -79 14 -186 -47
-234 -47 -37 -94 -53 -179 -58 -90 -6 -196 15 -298 60 -31 15 -61 27 -64 27
-7 1 -63 -155 -63 -176 0 -16 101 -60 186 -81 48 -12 111 -17 209 -17 127 0
147 3 219 27 179 62 271 164 297 330 20 125 -19 247 -109 335 -53 52 -172 117
-344 186 -154 63 -213 168 -158 282 27 55 82 92 159 106 94 18 190 -2 336 -68
9 -4 65 145 65 173 0 12 -70 44 -150 67 -68 20 -236 28 -310 15z"/>
<path d="M14115 6525 c-126 -44 -151 -236 -42 -319 145 -111 337 58 258 229
-22 49 -48 73 -98 91 -48 17 -68 17 -118 -1z"/>
<path d="M15835 6525 c-126 -44 -151 -236 -42 -319 145 -111 337 58 258 229
-22 49 -48 73 -98 91 -48 17 -68 17 -118 -1z"/>
</g>
</svg>
