<?xml version="1.0" encoding="UTF-8"?>
<!DOCTYPE svg PUBLIC "-//W3C//DTD SVG 1.1//EN" "http://www.w3.org/Graphics/SVG/1.1/DTD/svg11.dtd">
<svg xmlns="http://www.w3.org/2000/svg" xml:space="preserve" width="29.2715mm" height="27.8522mm" version="1.1" style="shape-rendering:geometricPrecision; text-rendering:geometricPrecision; image-rendering:optimizeQuality; fill-rule:evenodd; clip-rule:evenodd"
viewBox="0 0 2927.1 2785.17"
 xmlns:xlink="http://www.w3.org/1999/xlink">
 <defs>
  <style type="text/css">
   <![CDATA[
    .fil0 {fill:#E6E6E6;fill-opacity:0.1}
    .fil1 {fill:#C80000}
    .fil2 {fill:#FFF}
    .fil3 {fill:#000}
    .fil4 {fill:url(#id0)}
   ]]>
  </style>
  <linearGradient id="id0" gradientUnits="userSpaceOnUse" x1="2578.93" y1="581.73" x2="2323.67" y2="541.06">
   <stop offset="0" style="stop-opacity:1; stop-color:black"/>
   <stop offset="1" style="stop-opacity:1; stop-color:#C80000"/>
  </linearGradient>
 </defs>
 <g id="Слой_x0020_1">
  <metadata id="CorelCorpID_0Corel-Layer"/>
  <g id="_1766045605824">
   <path class="fil0" d="M1440.6 457.98l4.42 1.08 -2.72 -0.3 -1.7 -0.78zm-1012.08 1300.46c38.48,97.36 88.39,184.9 189.32,289.56l38.94 134.43 -90.95 25.75c-71.86,-48.8 -141.74,-135.65 -167.8,-172.78l30.49 -276.96zm-335.2 -407.58c145.61,-315.22 433.06,-519.81 751.53,-573.06 -247.37,75.84 -462.64,252.56 -579.67,505.91 -45.06,97.52 -72,198.78 -82.26,299.98l-108.84 312.64 -74.06 -120.96c-0.21,-142.28 29.71,-286.87 93.3,-424.52zm103.05 511.75c56.96,285.39 244.79,540.57 529.2,671.94 470.86,217.51 1028.56,13.58 1248.47,-455.42 -12.74,40.13 -28.11,79.9 -46.23,119.11 -233.99,506.59 -834.36,727.56 -1340.93,493.57 -181.44,-83.82 -326.21,-214.63 -426.59,-371.27l36.08 -457.92zm733.64 383.46c329.55,156.94 734.7,113.56 1026.31,-141.67 -27.79,31.63 -57.84,61.88 -90.18,90.52 -283.82,251.28 -669.49,313.87 -1003.62,197.25l108.76 -8.55 -41.27 -137.55z"/>
   <path class="fil1" d="M1463.57 814.85c334.47,0 615.54,228.77 695.23,538.39l-294.39 0c-9.92,-22.12 -21.61,-43.27 -34.9,-63.27l81.77 -81.77c14.85,-14.85 14.85,-39.15 0,-54l-69.22 -69.22c-14.85,-14.85 -39.13,-14.85 -53.99,0l-81.78 81.78c-46.41,-30.85 -99.05,-53.12 -155.61,-64.51l0 -115.59c0,-21.01 -17.17,-38.18 -38.18,-38.18l-97.88 0c-21.01,0 -38.18,17.17 -38.18,38.18l0 115.59c-56.56,11.39 -109.19,33.66 -155.61,64.51l-81.78 -81.78c-14.86,-14.85 -39.14,-14.85 -53.99,0l-69.22 69.22c-14.85,14.85 -14.85,39.15 0,54l81.77 81.77c-13.29,20 -24.98,41.14 -34.9,63.27l-294.39 0c79.69,-309.62 360.75,-538.39 695.25,-538.39zm51.5 -814.85c-1182.45,174.48 -1712.23,1600.03 -845.24,2346.62 556.97,479.61 1496.1,309.67 1660.49,-405.98 1.92,-8.38 3.62,-16.8 5.22,-25.21l180.61 0c-202.59,1041.47 -1831.22,1202.44 -2292.35,3.86 -282.2,-733.48 98.67,-1535.34 793.58,-1870.4 -34.34,18.55 -423.15,279.99 -363.7,298.67 0.08,0.02 318.48,-187.9 349.02,-202.24 164.68,-77.36 331.55,-124.11 512.37,-145.33zm487.47 904.51c188.19,77.14 355.71,219.18 450.98,419.11l-188.89 0c-43.11,-165.56 -136.15,-310.94 -262.1,-419.11zm-1355.01 419.11c55.61,-535.72 607.54,-993.12 1251.31,-899.5 -284.92,-5.18 129.03,88.44 221.15,129.56 455.51,203.31 730.34,638.01 741.53,1134.69 -46.82,-1002.65 -1115.59,-1412.55 -1693.63,-928.95 -247.43,94.66 -437.81,304.65 -505.39,564.21l-14.96 0zm1255.81 776.45c-121.49,94.32 -274.08,150.49 -439.77,150.49 -334.49,0 -615.56,-228.77 -695.25,-538.39l294.38 0c9.92,22.12 21.62,43.27 34.91,63.26l-81.77 81.78c-14.85,14.85 -14.85,39.13 0,53.99l69.22 69.22c14.85,14.86 39.13,14.86 53.99,0l81.78 -81.77c46.42,30.85 99.05,53.11 155.61,64.5l0 115.59c0,21.02 17.17,38.19 38.18,38.19l97.88 0c21.01,0 38.18,-17.17 38.18,-38.19l0 -115.59c55.49,-11.16 107.2,-32.8 152.97,-62.76l199.7 199.69z"/>
   <path class="fil2" d="M1476.24 1721.6l56.45 0c15.25,0 26.97,0.78 35.19,2.38 8.18,1.59 14.35,3.88 18.48,6.85 4.14,3.01 6.91,6.65 8.4,10.89 1.46,4.27 2.19,10.86 2.19,19.79l0 12.42c0,9.09 -1.41,15.73 -4.27,19.88 -2.82,4.18 -8.04,7.4 -15.58,9.63 -7.58,2.22 -17.48,3.33 -29.7,3.33l-15.03 0 0 57.57 -56.13 0 0 -142.74zm56.13 24.36l0 36.36c1.59,0.06 2.95,0.09 4.08,0.09 5.13,0 8.68,-0.84 10.68,-2.52 1.95,-1.66 2.95,-5.14 2.95,-10.44l0 -11.76c0,-4.87 -1.14,-8.06 -3.45,-9.53 -2.27,-1.47 -7.04,-2.2 -14.26,-2.2zm232.47 59.31c0,14.35 -0.5,24.48 -1.54,30.44 -1,5.98 -4.18,11.42 -9.54,16.36 -5.36,4.93 -12.62,8.72 -21.75,11.37 -9.13,2.64 -19.76,3.97 -31.88,3.97 -11.54,0 -21.85,-1.27 -31.02,-3.76 -9.17,-2.5 -16.58,-6.23 -22.12,-11.22 -5.58,-4.99 -8.89,-10.44 -9.98,-16.3 -1.05,-5.9 -1.59,-16.18 -1.59,-30.86l0 -24.42c0,-14.35 0.49,-24.48 1.53,-30.44 1,-5.98 4.19,-11.43 9.54,-16.36 5.36,-4.93 12.63,-8.72 21.76,-11.37 9.13,-2.64 19.75,-3.96 31.88,-3.96 11.53,0 21.84,1.26 31.01,3.75 9.18,2.5 16.58,6.23 22.12,11.22 5.59,4.99 8.9,10.44 9.99,16.3 1.05,5.9 1.59,16.18 1.59,30.86l0 24.42zm-56.13 -46.89c0,-6.61 -0.55,-10.85 -1.64,-12.72 -1.08,-1.83 -3.31,-2.77 -6.67,-2.77 -2.86,0 -5.04,0.76 -6.59,2.26 -1.49,1.47 -2.26,5.9 -2.26,13.23l0 66.62c0,8.27 0.49,13.38 1.49,15.31 1,1.95 3.32,2.91 6.95,2.91 3.72,0 6.13,-1.11 7.18,-3.33 1.04,-2.23 1.54,-7.55 1.54,-15.94l0 -65.57zm157.36 -36.78l0 114.23 33.79 0 0 28.51 -89.92 0 0 -142.74 56.13 0zm127.66 0l0 142.74 -56.13 0 0 -142.74 56.13 0zm219.17 0l0 142.74 -49.05 0 -0.13 -96.36 -19.49 96.36 -34.33 0 -20.57 -94.2 -0.14 94.2 -49.05 0 0 -142.74 72.44 0c2.04,8.63 4.27,18.8 6.68,30.41l7.94 36.24 12.76 -66.65 72.94 0zm46.59 0l93.46 0 0 28.51 -37.33 0 0 27.25 34.88 0 0 27.07 -34.88 0 0 31.4 41.15 0 0 28.51 -97.28 0 0 -142.74zm137.24 0l39.65 0c26.43,0 44.32,0.66 53.67,2.02 9.36,1.35 16.99,4.81 22.9,10.37 5.9,5.54 8.85,14.41 8.85,26.56 0,11.1 -2.09,18.56 -6.27,22.37 -4.13,3.82 -12.35,6.11 -24.61,6.86 11.08,1.84 18.57,4.27 22.39,7.34 3.81,3.04 6.17,5.86 7.08,8.42 0.96,2.56 1.41,9.6 1.41,21.11l0 37.69 -52.04 0 0 -47.49c0,-7.64 -0.91,-12.36 -2.73,-14.19 -1.77,-1.84 -6.49,-2.74 -14.17,-2.74l0 64.42 -56.13 0 0 -142.74zm56.13 24.36l0 31.76c6.27,0 10.63,-0.57 13.12,-1.71 2.51,-1.15 3.78,-4.87 3.78,-11.16l0 -7.85c0,-4.54 -1.23,-7.52 -3.64,-8.93 -2.4,-1.42 -6.86,-2.11 -13.26,-2.11zm-1761.81 -276.2l-117.33 0 0 -23.75c0,-11.1 -1.53,-18.2 -4.49,-21.25 -2.98,-3.04 -7.89,-4.53 -14.85,-4.53 -7.58,0 -13.31,2.03 -17.2,6.16 -3.89,4.06 -5.84,10.21 -5.84,18.54 0,10.69 2.26,18.74 6.66,24.15 4.3,5.35 16.17,11.92 35.72,19.63 56,22.13 91.33,40.33 105.86,54.47 14.65,14.15 21.91,36.95 21.91,68.35 0,22.87 -4.09,39.72 -12.18,50.62 -8.09,10.82 -23.64,19.89 -46.89,27.2 -23.14,7.38 -50.06,11.03 -80.88,11.03 -33.78,0 -62.55,-4.26 -86.51,-12.72 -23.85,-8.46 -39.41,-19.22 -46.89,-32.28 -7.36,-13.13 -11.05,-31.74 -11.05,-55.76l0 -21.04 117.32 0 0 39.04c0,12.05 1.64,19.76 4.92,23.21 3.27,3.45 9.11,5.14 17.51,5.14 8.39,0 14.63,-2.16 18.73,-6.56 4.1,-4.33 6.14,-10.83 6.14,-19.35 0,-18.88 -3.89,-31.27 -11.67,-37.02 -8.09,-5.82 -27.74,-15.56 -59.07,-29.23 -31.33,-13.74 -52.01,-23.76 -62.24,-29.98 -10.14,-6.22 -18.64,-14.82 -25.29,-25.78 -6.66,-10.96 -10.04,-24.97 -10.04,-42.02 0,-24.57 4.71,-42.57 14.24,-53.94 9.52,-11.37 24.77,-20.23 45.96,-26.66 21.2,-6.43 46.68,-9.61 76.68,-9.61 32.76,0 60.61,3.52 83.74,10.49 23.04,7.04 38.3,15.84 45.77,26.53 7.47,10.62 11.26,28.69 11.26,54.2l0 12.72zm358.93 -97.44l0 64.15 -74.33 0 0 257.01 -126.54 0 0 -257.01 -74.94 0 0 -64.15 275.81 0zm276.32 0l72.28 321.15 -129.11 0 -6.85 -57.66 -45.56 0 -6.86 57.66 -130.74 0 64.09 -321.15 182.75 0zm-67.06 206.66c-6.04,-36.41 -12.39,-81.47 -19.15,-135.27 -12.49,61.71 -20.37,106.78 -23.75,135.27l42.9 0zm497.13 -206.66l0 321.15 -110.57 0 -65.73 -146.03 0 146.03 -105.64 0 0 -321.15 105.64 0 70.65 144.61 0 -144.61 105.65 0zm406.13 0l-72.18 145.01 78.94 176.15 -130.23 0 -51.29 -137.64 0 137.64 -126.54 0 0 -321.15 126.54 0 0 124.78 56.82 -124.78 117.94 0zm359.44 188.26c0,32.27 -1.13,55.08 -3.49,68.48 -2.25,13.46 -9.41,25.71 -21.49,36.81 -12.08,11.1 -28.46,19.62 -49.04,25.58 -20.58,5.95 -44.54,8.93 -71.87,8.93 -26.01,0 -49.25,-2.84 -69.93,-8.46 -20.68,-5.62 -37.36,-14 -49.85,-25.24 -12.59,-11.23 -20.07,-23.48 -22.53,-36.67 -2.35,-13.27 -3.58,-36.41 -3.58,-69.43l0 -54.95c0,-32.28 1.13,-55.08 3.48,-68.48 2.25,-13.47 9.42,-25.72 21.51,-36.82 12.07,-11.09 28.45,-19.62 49.03,-25.58 20.58,-5.95 44.53,-8.93 71.87,-8.93 26,0 49.24,2.84 69.92,8.46 20.68,5.62 37.37,14.01 49.86,25.24 12.59,11.24 20.07,23.48 22.53,36.68 2.35,13.26 3.58,36.4 3.58,69.43l0 54.95zm-126.55 -105.5c0,-14.89 -1.22,-24.43 -3.68,-28.63 -2.45,-4.12 -7.47,-6.22 -15.04,-6.22 -6.46,0 -11.37,1.69 -14.85,5.07 -3.38,3.32 -5.12,13.27 -5.12,29.78l0 149.89c0,18.61 1.12,30.11 3.38,34.44 2.25,4.4 7.47,6.56 15.66,6.56 8.4,0 13.83,-2.5 16.18,-7.51 2.35,-5.01 3.47,-16.98 3.47,-35.86l0 -147.52z"/>
   <polygon class="fil3" points="2776.86,830.29 2899.7,831.24 2927.1,930.28 2833.16,903.82 "/>
   <polygon class="fil3" points="2771.52,721.64 2835.25,722.24 2862.82,768.8 2814.22,768.8 "/>
   <polygon class="fil3" points="2835.24,611.99 2908.79,640.65 2927.1,694.2 2870.87,672.75 "/>
   <path class="fil4" d="M2748.93 686.2c-175.57,-119.69 -316.09,-184.33 -500.42,-231.45 189.31,6.7 353.21,32.52 444.12,88.82l56.3 142.63z"/>
  </g>
 </g>
</svg>
